<?xml version="1.0" encoding="iso-8859-1"?>
<!-- Generator: Adobe Illustrator 19.0.0, SVG Export Plug-In . SVG Version: 6.00 Build 0)  -->
<svg version="1.1" id="Capa_1" xmlns="http://www.w3.org/2000/svg" xmlns:xlink="http://www.w3.org/1999/xlink" x="0px" y="0px"
	 viewBox="0 0 512 512" style="enable-background:new 0 0 512 512;" xml:space="preserve">
<g>
	<g>
		<path d="M509.071,137.807c3.905-3.905,3.905-10.237,0-14.142L388.335,2.929c-3.905-3.904-10.235-3.904-14.143,0
			c-10.205,10.205-23.773,15.825-38.205,15.825s-28-5.62-38.204-15.825c-3.906-3.905-10.236-3.905-14.143,0L2.929,283.64
			c-3.905,3.905-3.905,10.237,0,14.142c21.065,21.067,21.065,55.344,0,76.411c-3.905,3.905-3.905,10.237,0,14.142L123.664,509.07
			c1.876,1.875,4.419,2.929,7.071,2.929c2.652,0,5.195-1.054,7.071-2.929c10.204-10.205,23.773-15.825,38.205-15.825
			s28,5.62,38.204,15.825c1.876,1.875,4.419,2.929,7.071,2.929s5.195-1.054,7.071-2.929l280.712-280.712
			c3.905-3.905,3.905-10.237,0-14.143C488.004,193.151,488.004,158.873,509.071,137.807z M488.332,220.812L220.817,488.328
			c-12.818-9.785-28.404-15.082-44.805-15.082s-31.987,5.297-44.806,15.082l-107.54-107.54c20.069-26.368,20.069-63.232,0-89.601
			L291.183,23.672c12.818,9.785,28.404,15.082,44.805,15.082c16.4,0,31.987-5.297,44.806-15.082l107.54,107.539
			C468.263,157.58,468.263,194.444,488.332,220.812z"/>
	</g>
</g>
<g>
	<g>
		<path d="M419.253,123.048c0.086-8.031-3.108-15.88-8.764-21.536c-5.572-5.572-13.304-8.767-21.216-8.767
			c-8.083,0-15.569,3.168-21.079,8.92l-19.98,20.855l-7.793,8.253l-85.59-26.075c-3.533-1.077-7.373-0.118-9.985,2.495
			l-18.291,18.291c-2.174,2.174-3.227,5.228-2.855,8.28c0.372,3.053,2.127,5.764,4.76,7.353l64.625,38.999l-23.05,24.205
			l-22.669-1.63c-2.893-0.212-5.736,0.851-7.789,2.903l-15.395,15.395c-2.285,2.286-3.325,5.535-2.791,8.722
			c0.533,3.188,2.574,5.921,5.479,7.338l32.325,15.76l15.76,32.323c1.416,2.905,4.149,4.947,7.337,5.48
			c0.551,0.092,1.103,0.137,1.651,0.137c2.63,0,5.181-1.038,7.071-2.929l15.395-15.395c2.052-2.052,3.111-4.895,2.903-7.789
			l-1.632-22.669l24.205-23.05l39.001,64.625c1.589,2.633,4.3,4.388,7.353,4.76c3.049,0.371,6.105-0.682,8.28-2.856l18.29-18.291
			c2.607-2.607,3.568-6.438,2.5-9.968l-25.921-85.645l28.948-27.735C416.001,138.379,419.168,131.007,419.253,123.048z
			 M396.499,129.365l-33.379,31.98c-2.719,2.604-3.744,6.515-2.653,10.118l25.963,85.785l-5.022,5.023l-38.837-64.354
			c-1.566-2.596-4.227-4.341-7.231-4.744c-3.012-0.406-6.031,0.579-8.227,2.669l-36.643,34.896c-2.163,2.06-3.292,4.98-3.078,7.959
			l1.643,22.817l-2.249,2.249l-11.125-22.816c-0.978-2.007-2.6-3.628-4.605-4.606l-22.817-11.125l2.249-2.249l22.817,1.641
			c2.974,0.215,5.899-0.914,7.96-3.078l34.895-36.643c2.091-2.196,3.072-5.222,2.669-8.227s-2.148-5.665-4.744-7.232l-64.355-38.836
			l5.015-5.015l85.777,26.132c3.632,1.108,7.578,0.061,10.185-2.7l11.999-12.707l19.931-20.803c1.702-1.777,4.06-2.755,6.638-2.755
			c2.647,0,5.225,1.06,7.073,2.908c1.877,1.876,2.936,4.493,2.907,7.179C399.227,125.369,398.248,127.689,396.499,129.365z"/>
	</g>
</g>
<g>
	<g>
		<path d="M129.724,269.138c-3.904-3.905-10.234-3.905-14.143-0.001l-29.017,29.016c-3.905,3.905-3.905,10.237,0,14.142
			c1.953,1.953,4.512,2.929,7.071,2.929s5.118-0.977,7.071-2.929l29.017-29.016C133.629,279.375,133.629,273.043,129.724,269.138z"
			/>
	</g>
</g>
<g>
	<g>
		<path d="M150.188,248.635c-3.916-3.893-10.248-3.875-14.143,0.042l-0.167,0.168c-3.894,3.916-3.875,10.248,0.041,14.142
			c1.951,1.94,4.501,2.908,7.051,2.908c2.568,0,5.138-0.984,7.092-2.95l0.167-0.168C154.123,258.86,154.104,252.529,150.188,248.635
			z"/>
	</g>
</g>
<g>
	<g>
		<path d="M178.491,276.94c-3.906-3.905-10.236-3.905-14.143,0l-49.499,49.499c-3.905,3.905-3.905,10.237,0,14.142
			c1.953,1.953,4.512,2.929,7.071,2.929c2.56,0,5.118-0.977,7.071-2.929l49.499-49.499
			C182.396,287.177,182.396,280.844,178.491,276.94z"/>
	</g>
</g>
<g>
	<g>
		<path d="M206.775,305.223c-3.906-3.904-10.236-3.905-14.143,0.001l-49.498,49.499c-3.905,3.905-3.905,10.237,0,14.142
			c1.953,1.952,4.512,2.929,7.071,2.929c2.56,0,5.118-0.977,7.071-2.929l49.498-49.499
			C210.68,315.46,210.68,309.129,206.775,305.223z"/>
	</g>
</g>
<g>
	<g>
		<path d="M235.059,333.508c-3.906-3.905-10.236-3.905-14.143,0l-49.499,49.499c-3.905,3.905-3.905,10.237,0,14.142
			c1.953,1.953,4.512,2.929,7.071,2.929c2.559,0,5.118-0.977,7.071-2.929l49.499-49.499
			C238.964,343.745,238.964,337.413,235.059,333.508z"/>
	</g>
</g>
<g>
	<g>
		<path d="M214.012,411.125c-3.905-3.905-10.235-3.905-14.142,0l-0.167,0.167c-3.905,3.905-3.905,10.237,0,14.142
			c1.953,1.953,4.512,2.929,7.071,2.929s5.118-0.977,7.071-2.929l0.167-0.167C217.917,421.362,217.917,415.03,214.012,411.125z"/>
	</g>
</g>
<g>
	<g>
		<path d="M263.343,361.792c-3.906-3.905-10.236-3.905-14.142,0l-29.016,29.017c-3.905,3.905-3.905,10.237,0,14.142
			c1.953,1.952,4.512,2.929,7.071,2.929c2.56,0,5.118-0.977,7.071-2.929l29.016-29.017
			C267.248,372.029,267.248,365.697,263.343,361.792z"/>
	</g>
</g>
<g>
</g>
<g>
</g>
<g>
</g>
<g>
</g>
<g>
</g>
<g>
</g>
<g>
</g>
<g>
</g>
<g>
</g>
<g>
</g>
<g>
</g>
<g>
</g>
<g>
</g>
<g>
</g>
<g>
</g>
</svg>
