<?xml version="1.0" encoding="iso-8859-1"?>
<!-- Generator: Adobe Illustrator 19.0.0, SVG Export Plug-In . SVG Version: 6.00 Build 0)  -->
<svg version="1.1" id="Capa_1" xmlns="http://www.w3.org/2000/svg" xmlns:xlink="http://www.w3.org/1999/xlink" fill="#20c997" x="0px" y="0px"
	 viewBox="0 0 488 488" style="enable-background:new 0 0 488 488;" xml:space="preserve">
<g>
	<g>
		<path d="M221.576,426.71c-1.194-1.162-2.721-1.923-4.368-2.175v-0.008l-17.888-2.744l-8.072-17.24
			c-1.87-4.003-6.631-5.732-10.634-3.862c-1.7,0.794-3.067,2.161-3.862,3.862l-8.072,17.24l-17.888,2.744
			c-4.367,0.67-7.365,4.753-6.695,9.12c0.253,1.647,1.013,3.174,2.175,4.368l13.184,13.544l-3.128,19.2
			c-0.716,4.36,2.238,8.475,6.598,9.191c1.775,0.291,3.596-0.024,5.17-0.895L184,470.263l15.904,8.8
			c3.866,2.139,8.734,0.74,10.873-3.126c0.871-1.574,1.186-3.395,0.895-5.17l-3.128-19.2l13.184-13.544
			C224.81,434.857,224.742,429.792,221.576,426.71z M194.272,443.287c-1.769,1.815-2.574,4.362-2.168,6.864l1.128,6.936l-5.36-2.976
			c-2.409-1.333-5.335-1.333-7.744,0l-5.36,2.976l1.128-6.936c0.406-2.502-0.399-5.049-2.168-6.864l-5.152-5.296l6.752-1.04
			c2.639-0.406,4.902-2.101,6.032-4.52l2.64-5.6l2.64,5.6c1.13,2.419,3.393,4.114,6.032,4.52l6.752,1.04L194.272,443.287z"/>
	</g>
</g>
<g>
	<g>
		<path d="M325.576,390.918c-1.194-1.162-2.721-1.923-4.368-2.175v-0.008l-28.944-4.432l-13.024-27.736
			c-1.88-3.999-6.645-5.716-10.643-3.837c-1.687,0.793-3.044,2.15-3.837,3.837l-13.024,27.736l-28.944,4.432
			c-4.367,0.669-7.365,4.753-6.695,9.12c0.253,1.647,1.013,3.174,2.175,4.368l21.184,21.712l-5.016,30.752
			c-0.711,4.361,2.247,8.472,6.608,9.183c1.772,0.289,3.589-0.026,5.16-0.895L272,448.679l25.792,14.256
			c3.853,2.163,8.729,0.793,10.892-3.06c0.891-1.588,1.214-3.432,0.916-5.229l-5.056-30.712l21.184-21.704
			C328.81,399.065,328.742,394,325.576,390.918z M290.272,415.615c-1.772,1.817-2.576,4.367-2.168,6.872l3.016,18.48l-15.248-8.432
			c-2.409-1.333-5.335-1.333-7.744,0l-15.248,8.432l3.016-18.48c0.408-2.505-0.396-5.055-2.168-6.872L240.6,402.159l17.776-2.72
			c2.639-0.394,4.904-2.086,6.032-4.504L272,378.767l7.592,16.168c1.128,2.418,3.393,4.11,6.032,4.504l17.776,2.72L290.272,415.615z
			"/>
	</g>
</g>
<g>
	<g>
		<path d="M480,47.935h-36.688l24-24H480c4.418,0,8-3.582,8-8s-3.582-8-8-8H8c-4.418,0-8,3.582-8,8s3.582,8,8,8h36.688l-24,24H8
			c-4.418,0-8,3.582-8,8s3.582,8,8,8h24.328L32,94.471l-14.56,15.264c-13.276,13.926-12.767,35.972,1.136,49.272l32.64,31.2
			c1.488,1.426,3.468,2.222,5.528,2.224h0.184c0.957-0.045,1.899-0.256,2.784-0.624l89.176,128.128l-44.48,133.44
			c-1.396,4.197,0.875,8.732,5.072,10.128c4.197,1.396,8.732-0.875,10.128-5.072l40.696-122.104l25.144,36.144
			c2.523,3.627,7.509,4.523,11.136,2c3.627-2.523,4.523-7.509,2-11.136l-32-45.944l48.984-146.96
			c0.246-0.808,0.359-1.651,0.336-2.496h48.168c-0.026,0.924,0.113,1.844,0.408,2.72l34.792,96.368l-33.824,48.328
			c-2.641,3.542-1.91,8.555,1.632,11.195s8.555,1.91,11.195-1.632c0.096-0.129,0.188-0.261,0.277-0.395l27.368-39.096l62.56,173.232
			c1.145,3.168,4.152,5.279,7.52,5.28c0.928,0.001,1.849-0.161,2.72-0.48c4.152-1.504,6.3-6.087,4.8-10.24l-66.4-183.824
			l70.992-101.408l50.896,17.4l-54.8,220.624c-1.066,4.288,1.545,8.628,5.833,9.694c0.002,0.001,0.005,0.001,0.007,0.002
			c0.639,0.153,1.294,0.231,1.952,0.232c3.674-0.002,6.875-2.506,7.76-6.072l54.496-219.432c0.546,0.151,1.107,0.245,1.672,0.28
			c3.421-0.001,6.463-2.178,7.568-5.416l14.616-42.712c6.222-18.21-3.49-38.016-21.696-44.248L456,98.183V63.935h24
			c4.418,0,8-3.582,8-8S484.418,47.935,480,47.935z M444.688,23.935L424,44.623l-20.688-20.688H444.688z M404.688,47.935h-41.376
			L384,27.247L404.688,47.935z M364.688,23.935L344,44.623l-20.688-20.688H364.688z M324.688,47.935h-41.376L304,27.247
			L324.688,47.935z M284.688,23.935L264,44.623l-20.688-20.688H284.688z M244.688,47.935h-41.376L224,27.247L244.688,47.935z
			 M204.688,23.935L184,44.623l-20.688-20.688H204.688z M164.688,47.935h-41.376L144,27.247L164.688,47.935z M124.688,23.935
			L104,44.623L83.312,23.935H124.688z M64,27.247l20.688,20.688H43.312L64,27.247z M56.488,173.095L29.6,147.439
			c-7.526-7.196-7.802-19.128-0.616-26.664L47.2,101.767c3.437-3.621,8.177-5.72,13.168-5.832H60.8
			c4.852-0.011,9.518,1.862,13.016,5.224l26.856,25.64L56.488,173.095z M155.2,301.031L71.432,180.607l33.208-34.776l83.064,52.856
			c0.447,0.251,0.916,0.463,1.4,0.632L155.2,301.031z M199.592,167.855l-5.344,16l-78.336-49.848l1.872-1.96
			c3.051-3.196,2.933-8.26-0.263-11.311c0,0-0.001-0.001-0.001-0.001l-32.64-31.2c-6.645-6.447-15.627-9.913-24.88-9.6
			c-4.066,0.123-8.079,0.96-11.856,2.472l0.192-18.472H232v16h-5.144c-19.24,0.026-34.83,15.617-34.856,34.856v45.144
			C192.013,164.178,195.354,167.663,199.592,167.855z M272,151.935h-64v-37.144c0.018-10.407,8.449-18.838,18.856-18.856h26.288
			c10.407,0.018,18.838,8.449,18.856,18.856V151.935z M387.28,111.519l-14.608,42.72c-0.688,2.008-0.55,4.206,0.384,6.112
			c0.12,0.232,0.328,0.384,0.464,0.608l-63.024,90.032l-30.024-83.152c4.209-0.221,7.513-3.69,7.528-7.904v-45.144
			c-0.026-19.24-15.617-34.83-34.856-34.856H248v-16h192v28.8l-8.456-2.896C413.336,83.638,393.543,93.333,387.28,111.519z
			 M463.016,137.415l-12,35.136L390.4,151.839l12-35.104c3.354-9.868,14.072-15.15,23.941-11.796c0.02,0.007,0.04,0.013,0.059,0.02
			l24.88,8.504C461.13,116.842,466.382,127.561,463.016,137.415z"/>
	</g>
</g>
<g>
</g>
<g>
</g>
<g>
</g>
<g>
</g>
<g>
</g>
<g>
</g>
<g>
</g>
<g>
</g>
<g>
</g>
<g>
</g>
<g>
</g>
<g>
</g>
<g>
</g>
<g>
</g>
<g>
</g>
</svg>
